<svg width="80" height="80" viewBox="0 0 80 80" fill="none" xmlns="http://www.w3.org/2000/svg">
<path d="M0 40C0 26.5676 0 19.8513 2.45787 14.6546C4.99015 9.30054 9.30054 4.99015 14.6546 2.45787C19.8513 0 26.5676 0 40 0C53.4324 0 60.1487 0 65.3454 2.45787C70.6995 4.99015 75.0098 9.30054 77.5421 14.6546C80 19.8513 80 26.5676 80 40C80 53.4324 80 60.1487 77.5421 65.3454C75.0098 70.6995 70.6995 75.0098 65.3454 77.5421C60.1487 80 53.4324 80 40 80C26.5676 80 19.8513 80 14.6546 77.5421C9.30054 75.0098 4.99015 70.6995 2.45787 65.3454C0 60.1487 0 53.4324 0 40Z" fill="#306FFF"/>
<path d="M41.0972 22.5469C41.1188 22.7058 41.2082 22.8567 41.3667 22.9482L47.2476 26.3438C49.7358 27.7803 49.7781 31.3564 47.3247 32.8516C45.3832 33.9032 43.2344 34.401 41.0972 34.3506V22.5469Z" fill="#ACC0FF"/>
<path d="M50.8994 16.4876C51.4209 16.1864 52.0636 16.1865 52.5852 16.4876L56.9295 18.9954C65.4052 23.8889 65.4107 36.1206 56.9395 41.022L56.5227 41.262C53.0127 43.2837 49.2321 44.6297 45.3618 45.302L41.2589 62.773C40.9276 64.1835 38.9199 64.1835 38.5887 62.773L34.5162 45.4339C30.3508 44.814 26.2743 43.4181 22.5102 41.245L16.8571 37.9808C16.1733 37.586 16.1708 36.6 16.8527 36.2019L27.9594 29.7184C28.5926 29.3488 29.3756 29.3471 30.0105 29.7137L35.1597 32.6866C38.9098 34.8516 43.515 34.9143 47.3225 32.852C49.776 31.3568 49.7338 27.78 47.2455 26.3434L41.3647 22.9483C40.9975 22.7363 40.9976 22.2064 41.3647 21.9944L50.8994 16.4876Z" fill="white"/>
</svg>
