<svg width="281" height="280" viewBox="0 0 281 280" fill="none" xmlns="http://www.w3.org/2000/svg">
<path d="M29.8694 229.199L39.512 191.886C39.5898 191.585 39.8248 191.35 40.126 191.271L88.7444 178.588C88.8867 178.551 89.0363 178.551 89.1786 178.588L141.066 192.198C141.211 192.236 141.363 192.235 141.508 192.196L191.679 178.59C191.822 178.552 191.973 178.551 192.116 178.587L241.577 191.27C241.886 191.349 242.125 191.592 242.199 191.902L251.013 228.838C251.06 229.034 251.036 229.24 250.946 229.42L250.536 230.239C250.356 230.6 249.949 230.786 249.558 230.687L196.409 217.189C196.263 217.152 196.11 217.154 195.965 217.194L141.516 232.508C141.366 232.55 141.208 232.551 141.058 232.51L84.8904 217.192C84.7476 217.153 84.5971 217.151 84.4536 217.188L31.2195 230.708C30.867 230.797 30.4963 230.655 30.2946 230.352L29.9862 229.889C29.8508 229.686 29.8083 229.435 29.8694 229.199Z" fill="#88A5FF"/>
<path d="M30.1277 228.169L39.5138 191.033C39.5905 190.729 39.8262 190.492 40.1289 190.413L88.7444 177.73C88.8867 177.693 89.0363 177.693 89.1786 177.731L141.066 191.341C141.211 191.379 141.363 191.378 141.508 191.339L191.679 177.733C191.822 177.694 191.973 177.693 192.116 177.73L241.574 190.412C241.884 190.491 242.124 190.736 242.197 191.048L250.766 227.774C250.912 228.399 250.345 228.957 249.723 228.801L196.407 215.472C196.262 215.436 196.111 215.438 195.967 215.479L141.516 230.793C141.366 230.835 141.208 230.836 141.058 230.795L84.892 215.477C84.7482 215.438 84.5966 215.437 84.4522 215.474L31.1735 229.21C30.5428 229.372 29.9681 228.8 30.1277 228.169Z" fill="url(#paint0_linear_8334_12831)"/>
<path d="M196.186 215.417L191.897 177.674L241.98 190.447L251.086 229.142L196.186 215.417Z" fill="url(#paint1_linear_8334_12831)"/>
<path d="M84.6709 215.423L88.9599 177.674L141.286 191.399V230.857L84.6709 215.423Z" fill="url(#paint2_linear_8334_12831)"/>
<g style="mix-blend-mode:multiply">
<mask id="mask0_8334_12831" style="mask-type:alpha" maskUnits="userSpaceOnUse" x="28" y="180" width="233" height="45">
<g style="mix-blend-mode:plus-darker" opacity="0.3">
<path d="M110.751 181.536L108.532 204.229L141.142 213.146L168.603 204.408L168.765 204.361C169.574 204.153 170.438 204.291 171.145 204.748C171.898 205.236 172.394 206.037 172.496 206.929L174.212 221.94L168.245 224.337L166.943 211.236L142.115 219.137C141.563 219.312 140.972 219.325 140.413 219.172L86.2988 204.374L29.6104 219.563L28.0557 213.765L85.5293 198.364L85.7236 198.319C86.1785 198.229 86.6497 198.245 87.0986 198.368L102.657 202.622L104.786 180.852L110.751 181.536ZM226.161 203.632L260.303 212.573L258.781 218.382L222.754 208.946C221.606 208.646 220.743 207.698 220.552 206.527L216.691 182.938L222.617 181.968L226.161 203.632Z" fill="url(#paint3_linear_8334_12831)"/>
</g>
</mask>
<g mask="url(#mask0_8334_12831)">
<path d="M29.6924 229.575L39.5571 190.545L88.8805 177.678L141.206 191.403L191.816 177.678L241.997 190.545L251.004 229.146L196.105 215.421L141.206 230.861L84.5915 215.421L29.6924 229.575Z" fill="#ACC0FF"/>
</g>
</g>
<g clip-path="url(#clip0_8334_12831)">
<path d="M139.024 160.395L147.51 139.47L131.51 137.596L134.93 159.915C135.259 162.06 138.206 162.406 139.023 160.395L139.024 160.395Z" fill="url(#paint4_linear_8334_12831)"/>
<path d="M184.384 53.5423L115.5 45.4717C110.555 44.8923 106.42 49.1904 107.192 54.1103L114.69 101.89C115.146 104.797 114.778 107.775 113.63 110.486L105.201 130.358C104.126 132.893 105.845 135.741 108.647 136.07L170.11 143.271C172.912 143.599 175.243 141.226 174.783 138.511L171.176 117.229C170.683 114.325 171.015 111.343 172.132 108.62L190.47 63.8673C192.359 59.2592 189.33 54.1217 184.384 53.5423Z" fill="url(#paint5_linear_8334_12831)"/>
<path d="M146.385 79.8309C148.395 80.0664 150.215 78.6278 150.451 76.6176C150.686 74.6074 149.248 72.787 147.237 72.5514C145.227 72.3159 143.407 73.7546 143.171 75.7647C142.936 77.7749 144.374 79.5954 146.385 79.8309Z" fill="url(#paint6_linear_8334_12831)"/>
<path d="M158.269 75.4166C160.16 75.6382 161.873 74.2846 162.095 72.3932C162.316 70.5018 160.963 68.7889 159.071 68.5673C157.18 68.3457 155.467 69.6993 155.245 71.5907C155.024 73.4821 156.377 75.195 158.269 75.4166Z" fill="#2E293D"/>
<path d="M135.849 72.7897C137.74 73.0113 139.453 71.6576 139.675 69.7662C139.896 67.8748 138.543 66.1619 136.651 65.9403C134.76 65.7187 133.047 67.0723 132.825 68.9638C132.604 70.8552 133.957 72.5681 135.849 72.7897Z" fill="#2E293D"/>
<path d="M137.025 83.6602C138.605 86.5883 141.624 88.7475 145.29 89.1769C148.956 89.6064 152.393 88.2023 154.606 85.72" stroke="#2E293D" stroke-width="5.97395" stroke-miterlimit="10" stroke-linecap="round"/>
<path d="M85.8589 84.525C87.7983 79.7341 93.541 77.7325 98.2473 79.8698C102.954 82.0071 105.038 87.5547 102.901 92.261C100.763 96.9672 95.2157 99.0516 90.5095 96.9143C85.8033 94.777 83.6534 89.9752 85.8589 84.525Z" fill="url(#paint7_linear_8334_12831)"/>
<path d="M161.859 110.525C163.798 105.734 169.541 103.733 174.247 105.87C178.954 108.007 181.038 113.555 178.901 118.261C176.763 122.967 171.216 125.052 166.51 122.914C161.803 120.777 159.653 115.975 161.859 110.525Z" fill="url(#paint8_linear_8334_12831)"/>
</g>
<path fill-rule="evenodd" clip-rule="evenodd" d="M77.6919 140.019C80.9634 150.72 70.0084 164.099 70.0084 164.099C70.0084 164.099 53.4453 159.132 50.1739 148.431C47.8509 140.832 52.1279 132.789 59.7268 130.466C67.3257 128.143 75.369 132.42 77.6919 140.019Z" fill="url(#paint9_linear_8334_12831)"/>
<path fill-rule="evenodd" clip-rule="evenodd" d="M65.3328 148.808C67.8658 148.033 69.2914 145.352 68.5171 142.819C67.7428 140.286 65.0617 138.861 62.5287 139.635C59.9958 140.409 58.5701 143.09 59.3444 145.623C60.1187 148.156 62.7998 149.582 65.3328 148.808Z" fill="white" stroke="white" stroke-width="1.7156" stroke-linecap="round" stroke-linejoin="round"/>
<path d="M178.718 176.816L169.594 179.394V186.642L179.42 183.905L178.718 176.816Z" fill="#A5BBFF"/>
<path d="M171.349 192.256L169.594 186.641L179.42 183.834L180.824 189.449L171.349 192.256Z" fill="#8CA8FF"/>
<path d="M180.123 182.431L178.719 176.816L179.421 183.835L180.825 189.449L180.123 182.431Z" fill="#6789FF"/>
<path d="M62.9139 179.389L53.79 181.966V189.214L63.6157 186.477L62.9139 179.389Z" fill="#A5BBFF"/>
<path d="M55.5446 194.83L53.79 189.216L63.6157 186.408L65.0194 192.023L55.5446 194.83Z" fill="#8CA8FF"/>
<path d="M64.3187 185.003L62.915 179.389L63.6169 186.407L65.0205 192.022L64.3187 185.003Z" fill="#6789FF"/>
<path d="M167.761 188.826L160.158 190.974V197.014L168.346 194.733L167.761 188.826Z" fill="#A5BBFF"/>
<path d="M161.62 201.694L160.158 197.015L168.346 194.676L169.516 199.355L161.62 201.694Z" fill="#8CA8FF"/>
<path d="M168.931 193.505L167.762 188.826L168.347 194.675L169.516 199.354L168.931 193.505Z" fill="#6789FF"/>
<g style="mix-blend-mode:color-burn" opacity="0.31" filter="url(#filter0_f_8334_12831)">
<path d="M205.548 189.107L207.34 187.853C217.029 185.14 234.631 189.953 242.221 192.698L247.55 214.983C245.935 214.66 241.542 213.82 236.891 213.045C232.241 212.27 216.867 202.387 209.762 197.542L205.311 193.685C203.881 192.446 203.998 190.192 205.548 189.107Z" fill="url(#paint10_radial_8334_12831)"/>
</g>
<path fill-rule="evenodd" clip-rule="evenodd" d="M236.926 163.799C233.19 180.599 208.387 190.196 208.387 190.196C208.387 190.196 189.989 170.993 193.725 154.192C196.378 142.263 208.199 134.742 220.129 137.395C232.058 140.048 239.579 151.869 236.926 163.799Z" fill="url(#paint11_linear_8334_12831)"/>
<path fill-rule="evenodd" clip-rule="evenodd" d="M213.724 166.197C217.701 167.081 221.641 164.574 222.525 160.598C223.41 156.621 220.903 152.681 216.926 151.796C212.95 150.912 209.009 153.419 208.125 157.395C207.241 161.372 209.747 165.312 213.724 166.197Z" fill="white" stroke="white" stroke-width="1.7156" stroke-linecap="round" stroke-linejoin="round"/>
<circle cx="231.561" cy="49.784" r="4.84456" fill="#EFEFF3"/>
<g style="mix-blend-mode:color-burn" opacity="0.29" filter="url(#filter1_f_8334_12831)">
<path d="M164.247 205.538C167.969 210.293 152.828 220.334 144.006 220.456C138.874 220.527 132.883 219.907 126.601 218.523C109.519 214.761 96.7568 206.782 98.0958 200.702C99.4349 194.621 114.368 192.741 131.45 196.503C137.222 197.774 139.493 198.285 143.901 200.283C152.538 204.199 163.439 199.323 164.247 205.538Z" fill="url(#paint12_radial_8334_12831)"/>
</g>
<path d="M195.126 237.973L196.786 244.313L203.223 243.085L200.419 249.008L206.14 252.205L200.185 254.941L202.513 261.067L196.192 259.334L194.037 265.524L190.309 260.134L184.68 263.49L185.289 256.964L178.82 255.917L183.48 251.31L179.198 246.349L185.73 245.815L185.638 239.262L190.984 243.052L195.126 237.973Z" fill="#E7E7ED"/>
<rect x="242.5" y="91.0742" width="5" height="24" transform="rotate(-37.9427 242.5 91.0742)" fill="#8EA8FF"/>
<rect x="65.2744" y="18" width="5" height="24" transform="rotate(65.1312 65.2744 18)" fill="#FFBA18"/>
<defs>
<filter id="filter0_f_8334_12831" x="197.816" y="180.559" width="56.2246" height="40.9151" filterUnits="userSpaceOnUse" color-interpolation-filters="sRGB">
<feFlood flood-opacity="0" result="BackgroundImageFix"/>
<feBlend mode="normal" in="SourceGraphic" in2="BackgroundImageFix" result="shape"/>
<feGaussianBlur stdDeviation="3.24585" result="effect1_foregroundBlur_8334_12831"/>
</filter>
<filter id="filter1_f_8334_12831" x="87.9995" y="184.564" width="86.8252" height="45.8965" filterUnits="userSpaceOnUse" color-interpolation-filters="sRGB">
<feFlood flood-opacity="0" result="BackgroundImageFix"/>
<feBlend mode="normal" in="SourceGraphic" in2="BackgroundImageFix" result="shape"/>
<feGaussianBlur stdDeviation="5" result="effect1_foregroundBlur_8334_12831"/>
</filter>
<linearGradient id="paint0_linear_8334_12831" x1="140.429" y1="177.674" x2="140.429" y2="230.857" gradientUnits="userSpaceOnUse">
<stop stop-color="#D1DCFE"/>
<stop offset="1" stop-color="#F1F4FF"/>
</linearGradient>
<linearGradient id="paint1_linear_8334_12831" x1="221.491" y1="177.674" x2="221.491" y2="228.312" gradientUnits="userSpaceOnUse">
<stop stop-color="#9FB7FF"/>
<stop offset="1" stop-color="#9FB7FF" stop-opacity="0.3"/>
</linearGradient>
<linearGradient id="paint2_linear_8334_12831" x1="112.978" y1="177.674" x2="112.978" y2="230" gradientUnits="userSpaceOnUse">
<stop stop-color="#9FB7FF"/>
<stop offset="1" stop-color="#9FB7FF" stop-opacity="0.3"/>
</linearGradient>
<linearGradient id="paint3_linear_8334_12831" x1="238.498" y1="181.966" x2="238.498" y2="218.379" gradientUnits="userSpaceOnUse">
<stop stop-color="#8BA8FF"/>
<stop offset="1" stop-color="#B9C9FF"/>
</linearGradient>
<linearGradient id="paint4_linear_8334_12831" x1="139.51" y1="138.533" x2="136.794" y2="161.714" gradientUnits="userSpaceOnUse">
<stop stop-color="#FFBA18"/>
<stop offset="1" stop-color="#FFE17F"/>
</linearGradient>
<linearGradient id="paint5_linear_8334_12831" x1="149.942" y1="49.507" x2="139.378" y2="139.67" gradientUnits="userSpaceOnUse">
<stop stop-color="#618EFF"/>
<stop offset="0.0569536" stop-color="#306FFF"/>
<stop offset="0.629808" stop-color="#6E97FF"/>
<stop offset="1" stop-color="#ACC0FF"/>
</linearGradient>
<linearGradient id="paint6_linear_8334_12831" x1="147.237" y1="72.5514" x2="146.385" y2="79.8309" gradientUnits="userSpaceOnUse">
<stop stop-color="#FFDA6B"/>
<stop offset="1" stop-color="#FFF4D7"/>
</linearGradient>
<linearGradient id="paint7_linear_8334_12831" x1="95.4733" y1="79.0889" x2="93.2938" y2="97.691" gradientUnits="userSpaceOnUse">
<stop stop-color="#FFBA18"/>
<stop offset="1" stop-color="#FFE17F"/>
</linearGradient>
<linearGradient id="paint8_linear_8334_12831" x1="171.473" y1="105.089" x2="169.294" y2="123.691" gradientUnits="userSpaceOnUse">
<stop stop-color="#FFBA18"/>
<stop offset="1" stop-color="#FFE17F"/>
</linearGradient>
<linearGradient id="paint9_linear_8334_12831" x1="59.499" y1="131.5" x2="75.4116" y2="160.788" gradientUnits="userSpaceOnUse">
<stop stop-color="#F59E0B"/>
<stop offset="1" stop-color="#6B8CFF"/>
</linearGradient>
<radialGradient id="paint10_radial_8334_12831" cx="0" cy="0" r="1" gradientUnits="userSpaceOnUse" gradientTransform="translate(212.184 191.244) rotate(17.9691) scale(37.6881 9.34817)">
<stop/>
<stop offset="1" stop-opacity="0"/>
</radialGradient>
<linearGradient id="paint11_linear_8334_12831" x1="220.408" y1="143.186" x2="211.113" y2="184.873" gradientUnits="userSpaceOnUse">
<stop stop-color="#FFD060"/>
<stop offset="1" stop-color="#C3D2FF"/>
</linearGradient>
<radialGradient id="paint12_radial_8334_12831" cx="0" cy="0" r="1" gradientTransform="matrix(35.2204 6.73493 -2.70818 14.9725 132.838 206.141)" gradientUnits="userSpaceOnUse">
<stop/>
<stop offset="1" stop-opacity="0"/>
</radialGradient>
<clipPath id="clip0_8334_12831">
<rect width="131.461" height="112.977" fill="white" transform="translate(83.3652 41.707) rotate(6.68243)"/>
</clipPath>
</defs>
</svg>
