<svg width="16" height="16" viewBox="0 0 16 16" fill="none" xmlns="http://www.w3.org/2000/svg">
<path d="M12.6598 1.33337H6.00579C5.26513 1.33337 4.66579 1.93271 4.66579 2.67337V6.43137L1.53112 9.52604C1.4372 9.61893 1.37299 9.73763 1.34665 9.86708C1.3203 9.99652 1.333 10.1309 1.38315 10.2531C1.43329 10.3753 1.51861 10.4799 1.62828 10.5535C1.73795 10.6272 1.86702 10.6665 1.99912 10.6667V14C1.99912 14.1769 2.06936 14.3464 2.19439 14.4714C2.31941 14.5965 2.48898 14.6667 2.66579 14.6667H13.3325C13.5093 14.6667 13.6788 14.5965 13.8039 14.4714C13.9289 14.3464 13.9991 14.1769 13.9991 14V2.67271C13.9991 1.93271 13.4005 1.33337 12.6598 1.33337ZM7.28046 10.074V13.3334H3.33246V9.62137L5.32379 7.65537L7.28046 9.65737V10.074ZM8.66579 6.00004H7.33246V4.66671H8.66579V6.00004ZM11.3325 11.3334H9.99912V10H11.3325V11.3334ZM11.3325 8.66671H9.99912V7.33337H11.3325V8.66671ZM11.3325 6.00004H9.99912V4.66671H11.3325V6.00004Z" fill="black"/>
<path d="M4.66675 10H6.00008V11.3333H4.66675V10Z" fill="black"/>
</svg>
